<?xml version="1.0" encoding="utf-8"?>
<svg xmlns="http://www.w3.org/2000/svg" width="40px" height="40px" viewBox="0 0 40 40" version="1.1" xmlns:bx="https://boxy-svg.com"><defs><bx:export><bx:file format="svg"/></bx:export></defs><rect x="13.007" y="11.315" width="14.814" height="17.308" style="stroke: rgb(0, 0, 0); paint-order: fill; stroke-width: 0px; fill: rgb(255, 255, 255);"/><g id="surface1"><path style=" stroke:none;fill-rule:nonzero;fill:rgb(100%,0%,0%);fill-opacity:1;" d="M 20 1.5625 C 9.8125 1.5625 1.5625 9.8125 1.5625 20 C 1.5625 30.1875 9.8125 38.4375 20 38.4375 C 30.1875 38.4375 38.4375 30.1875 38.4375 20 C 38.4375 9.8125 30.1875 1.5625 20 1.5625 Z M 20.015625 17.671875 C 20.015625 18.375 19.34375 18.9375 18.5 19 L 18.484375 19.015625 L 18.015625 19.015625 L 18.015625 20.453125 L 18.6875 21.078125 L 18.6875 26.296875 C 18.6875 26.296875 18.6875 26.296875 18.6875 26.3125 C 18.6875 27.421875 17.796875 28.3125 16.6875 28.3125 C 15.59375 28.3125 14.703125 27.421875 14.6875 26.328125 L 14.6875 21.140625 L 14.84375 21 C 14.921875 20.765625 15.125 20.59375 15.359375 20.515625 L 15.359375 19.046875 C 15.25 19.078125 15.125 19.09375 15 19.09375 C 14.15625 19.09375 13.46875 18.46875 13.375 17.65625 L 13.359375 17.640625 L 13.359375 17.53125 C 13.359375 17.515625 13.359375 17.5 13.359375 17.484375 L 13.359375 17 L 13.328125 12.359375 L 13.34375 12.359375 C 13.34375 12 13.640625 11.71875 14 11.71875 C 14.375 11.71875 14.671875 12.015625 14.671875 12.375 C 14.671875 12.375 14.671875 12.390625 14.671875 12.390625 L 14.671875 17 L 16 17 L 16 12.5625 L 16.03125 12.515625 C 16.015625 12.46875 16 12.421875 16 12.375 C 16 12.015625 16.296875 11.71875 16.65625 11.71875 C 16.65625 11.71875 16.671875 11.71875 16.671875 11.71875 L 16.671875 11.703125 L 16.6875 11.703125 L 16.703125 11.71875 C 17.046875 11.75 17.3125 12.03125 17.3125 12.375 C 17.3125 12.40625 17.296875 12.453125 17.296875 12.484375 L 17.3125 12.515625 L 17.3125 17.015625 L 18.640625 17.015625 L 18.640625 12.40625 C 18.640625 12.390625 18.640625 12.390625 18.640625 12.375 C 18.640625 12.015625 18.9375 11.71875 19.3125 11.71875 C 19.6875 11.71875 19.984375 12.015625 19.984375 12.375 C 19.984375 12.390625 19.984375 12.40625 19.984375 12.40625 L 19.984375 17.625 L 19.9375 17.671875 Z M 26.640625 18.859375 L 26.640625 27.5625 L 26.625 27.578125 C 26.59375 27.984375 26.28125 28.3125 25.875 28.3125 C 25.84375 28.3125 25.828125 28.3125 25.796875 28.3125 L 25.703125 28.3125 C 25.671875 28.3125 25.65625 28.3125 25.625 28.3125 C 25.59375 28.3125 25.578125 28.3125 25.546875 28.3125 C 25.171875 28.265625 24.65625 27.9375 24.65625 27.546875 C 24.65625 27.546875 24.65625 27.53125 24.65625 27.53125 L 24.65625 23.734375 L 23.5 23.734375 C 23.484375 23.734375 23.46875 23.734375 23.4375 23.734375 C 23.03125 23.734375 22.6875 23.390625 22.6875 22.953125 C 22.6875 22.953125 22.6875 22.953125 22.6875 22.9375 L 22.671875 22.921875 L 22.671875 15.625 C 22.671875 15.515625 22.65625 15.40625 22.65625 15.28125 C 22.65625 13.3125 24.75 11.703125 26.640625 11.703125 Z M 26.640625 18.859375 "/></g></svg>